<?xml version="1.0" encoding="utf-8"?>
<!-- Generator: Adobe Illustrator 26.0.1, SVG Export Plug-In . SVG Version: 6.00 Build 0)  -->
<svg version="1.1" id="Layer_1" xmlns="http://www.w3.org/2000/svg" xmlns:xlink="http://www.w3.org/1999/xlink" x="0px" y="0px"
	 viewBox="0 0 792 288" style="enable-background:new 0 0 792 288;" xml:space="preserve">
<style type="text/css">
	.st0{fill-rule:evenodd;clip-rule:evenodd;fill:#E3000F;}
	.st1{fill-rule:evenodd;clip-rule:evenodd;}
</style>
<path class="st0" d="M635.18,140.96c4.49-1.35,8.26-3.44,11.33-6.28c3.07-2.84,4.6-5.05,4.6-6.62c0-0.6-0.26-0.9-0.79-0.9
	c-2.32,0-5.05,1.42-8.19,4.26C639,134.27,636.68,137.45,635.18,140.96 M640.79,154.54c3.66,0,7.18-0.79,10.54-2.36
	c3.36-1.57,7.33-3.89,11.89-6.95l-0.22,4.71c-6.21,4.71-11.23,8.23-15.09,10.54c-3.85,2.32-7.87,3.48-12.06,3.48
	c-3.96,0-7.07-1.23-9.31-3.7c-2.24-2.47-3.36-5.91-3.36-10.32c0-7.78,3.12-14.6,9.37-20.47c6.24-5.87,13.25-8.81,21.03-8.81
	c4.56,0,6.84,1.72,6.84,5.16c0,5.01-2.58,9.05-7.74,12.11c-5.18,3.07-11.46,5.87-18.85,8.41v2.36c0,1.79,0.62,3.21,1.85,4.26
	C636.92,154.01,638.62,154.54,640.79,154.54z M617.36,147.58c1.27,0,2.43-0.15,3.48-0.45c1.05-0.3,2.32-0.94,3.81-1.91
	c-0.15,1.49-0.22,2.65-0.22,3.48c0,0.52,0.04,0.97,0.11,1.35c-2.24,1.42-4.15,2.43-5.72,3.03c-1.57,0.6-3.1,0.9-4.6,0.9
	c-1.42,0-2.58-0.22-3.48-0.67c-0.9-0.45-2.36-1.5-4.37-3.14c-3.36,3.37-6.77,6.41-10.21,9.14c-3.44,2.73-6.36,4.09-8.75,4.09
	c-2.39,0-4.69-1.4-6.9-4.21c-2.21-2.81-3.31-5.85-3.31-9.14c0-6.66,1.91-13.12,5.72-19.41c3.81-6.28,7.66-9.42,11.55-9.42
	c2.09,0,3.76,0.22,4.99,0.67c1.23,0.45,1.85,1.08,1.85,1.91c0,2.92-2.17,6.62-6.51,11.1c-4.34,4.49-6.99,7.22-7.96,8.19
	c-1.27,3.44-1.91,5.68-1.91,6.73c0,2.47,0.9,3.7,2.69,3.7c1.12,0,3.14-1.01,6.06-3.03c2.92-2.02,5.68-4.34,8.3-6.95
	c0-3.74,2.02-8.34,6.06-13.8c4.04-5.46,7.37-8.19,9.98-8.19c2.39,0,3.59,1.27,3.59,3.81c0,2.09-0.92,4.75-2.75,7.96
	c-1.83,3.22-4.02,6.69-6.56,10.43c0.52,1.42,1.16,2.41,1.91,2.97C614.97,147.3,616.01,147.58,617.36,147.58z M561.51,153.53
	c2.02,0,4.21-0.58,6.56-1.74c2.35-1.16,5.74-3.35,10.15-6.56l-0.11,4.82c-3.51,2.69-7.03,5.38-10.54,8.08
	c-5.09,3.51-9.01,5.27-11.78,5.27c-2.77,0-5.1-1.4-7.01-4.21c-1.91-2.81-2.86-5.85-2.86-9.14c0-6.51,2.17-12.45,6.51-17.84
	c4.34-5.38,9.31-8.08,14.92-8.08c1.12,0,2.09,0.3,2.92,0.9c0.82,0.6,1.23,1.35,1.23,2.24c0,2.24-2.73,5.87-8.19,10.88
	c-5.46,5.01-8.19,8.38-8.19,10.1C555.12,151.77,557.25,153.53,561.51,153.53z M577.89,108.55c2.39,0,3.59,1.23,3.59,3.7
	c0,2.24-0.86,4.43-2.58,6.56c-1.72,2.13-3.7,3.2-5.95,3.2c-1.35,0-2.45-0.47-3.31-1.4c-0.86-0.93-1.29-2.11-1.29-3.53
	c0-2.17,1.03-4.13,3.09-5.89C573.5,109.43,575.65,108.55,577.89,108.55z M532.7,152.41c2.02,0,4.56-0.9,7.63-2.69
	c3.37-2.24,5.65-3.74,6.84-4.49l-0.11,4.82c-3.44,2.77-7.2,5.68-11.27,8.75c-4.08,3.07-7.57,4.6-10.49,4.6
	c-2.02,0-3.74-0.79-5.16-2.36c-1.42-1.57-2.13-3.52-2.13-5.83c0-3.29,0.86-6.26,2.58-8.92c1.72-2.66,4.34-6,7.85-10.04l-12.45,2.56
	c-2.39,2.54-4.22,4.41-5.5,5.61c-1.27,1.22-3.52,3.09-6.73,5.63c0-0.75,0-1.5,0-2.24c0-0.75,0.07-1.61,0.22-2.58
	c1.42-1.12,2.58-2.09,3.48-2.92c0.9-0.82,1.79-1.79,2.69-2.92c-1.79-0.3-2.69-1.31-2.69-3.03c0-3.07,1.76-6.51,5.27-10.32
	c3.52-3.81,6.32-5.72,8.41-5.72c1.35,0,2.02,0.9,2.02,2.69c0,0.6-0.19,1.35-0.56,2.24l15.26-2.02c1.2,0,2.28,0.67,3.25,2.02
	c0.97,1.35,1.46,2.92,1.46,4.71c0,1.05-2.17,3.87-6.51,8.47c-4.34,4.6-6.51,8.21-6.51,10.82
	C529.55,151.36,530.6,152.41,532.7,152.41z M440.84,151.06c12.26,0,24.85-3.14,37.74-9.42c12.9-6.28,19.35-14.43,19.35-24.45
	c0-4.94-2.56-8.62-7.68-11.05s-13.33-3.65-24.62-3.65c-1.35,4.71-4.56,10.1-9.65,16.15c-5.09,6.06-9.95,11.81-14.58,17.27
	c-4.64,5.46-6.95,9.42-6.95,11.89C434.45,149.97,436.58,151.06,440.84,151.06z M469.78,86.11c11.67,0,20.6,2.32,26.81,6.95
	c6.21,4.64,9.31,11.96,9.31,21.98c0,9.87-4,18.53-12,25.97c-8,7.44-17.76,13.16-29.28,17.16c-11.52,4-22.02,6-31.52,6
	c-3.89,0-6.58-0.49-8.08-1.46c-1.5-0.97-2.24-2.77-2.24-5.38c0-5.46,2.19-11.24,6.56-17.33c4.38-6.09,10.25-13.24,17.61-21.42
	c7.36-8.19,11.57-13.48,12.62-15.87c-5.23,0.6-9.52,1.27-12.84,2.02c-3.33,0.75-6.9,1.91-10.71,3.48c0.3,0,0.67,0,1.12,0
	s1.01-0.04,1.68-0.11c1.64,0,3.05,0.09,4.21,0.28c1.16,0.19,1.74,0.54,1.74,1.07c0,0.9-2.64,2.17-7.91,3.81
	c-5.27,1.65-9.78,2.47-13.52,2.47c-2.84,0-4.26-1.31-4.26-3.93c0-1.27,0.22-2.67,0.67-4.21c0.45-1.53,1.12-4.06,2.02-7.57
	c0.9-3.52,6.99-6.71,18.28-9.59C451.35,87.55,461.25,86.11,469.78,86.11z M372.88,152.41c2.02,0,4.56-0.9,7.63-2.69
	c3.37-2.24,5.65-3.74,6.84-4.49l-0.11,4.82c-3.44,2.77-7.2,5.68-11.27,8.75c-4.08,3.07-7.57,4.6-10.49,4.6
	c-2.02,0-3.74-0.79-5.16-2.36c-1.42-1.57-2.13-3.52-2.13-5.83c0-3.29,0.86-6.26,2.58-8.92c1.72-2.66,4.34-6,7.85-10.04l-12.45,2.56
	c-2.39,2.54-4.22,4.41-5.5,5.61c-1.27,1.22-3.52,3.09-6.73,5.63c0-0.75,0-1.5,0-2.24c0-0.75,0.07-1.61,0.22-2.58
	c1.42-1.12,2.58-2.09,3.48-2.92c0.9-0.82,1.79-1.79,2.69-2.92c-1.79-0.3-2.69-1.31-2.69-3.03c0-3.07,1.76-6.51,5.27-10.32
	c3.52-3.81,6.32-5.72,8.41-5.72c1.35,0,2.02,0.9,2.02,2.69c0,0.6-0.19,1.35-0.56,2.24l15.26-2.02c1.2,0,2.28,0.67,3.25,2.02
	c0.97,1.35,1.46,2.92,1.46,4.71c0,1.05-2.17,3.87-6.51,8.47c-4.34,4.6-6.51,8.21-6.51,10.82
	C369.73,151.36,370.78,152.41,372.88,152.41z M317.03,140.96c4.49-1.35,8.26-3.44,11.33-6.28c3.07-2.84,4.6-5.05,4.6-6.62
	c0-0.6-0.26-0.9-0.79-0.9c-2.32,0-5.05,1.42-8.19,4.26C320.84,134.27,318.52,137.45,317.03,140.96z M322.63,154.54
	c3.66,0,7.18-0.79,10.54-2.36c3.37-1.57,7.33-3.89,11.89-6.95l-0.22,4.71c-6.21,4.71-11.23,8.23-15.09,10.54
	c-3.85,2.32-7.87,3.48-12.06,3.48c-3.96,0-7.07-1.23-9.31-3.7c-2.24-2.47-3.37-5.91-3.37-10.32c0-7.78,3.12-14.6,9.37-20.47
	c6.24-5.87,13.25-8.81,21.03-8.81c4.56,0,6.84,1.72,6.84,5.16c0,5.01-2.58,9.05-7.74,12.11c-5.18,3.07-11.46,5.87-18.85,8.41v2.36
	c0,1.79,0.62,3.21,1.85,4.26C318.76,154.01,320.47,154.54,322.63,154.54z M299.2,147.58c1.27,0,2.43-0.15,3.48-0.45
	c1.05-0.3,2.32-0.94,3.81-1.91c-0.15,1.49-0.22,2.65-0.22,3.48c0,0.52,0.04,0.97,0.11,1.35c-2.24,1.42-4.15,2.43-5.72,3.03
	c-1.57,0.6-3.1,0.9-4.6,0.9c-1.42,0-2.58-0.22-3.48-0.67c-0.9-0.45-2.36-1.5-4.37-3.14c-3.37,3.37-6.77,6.41-10.21,9.14
	c-3.44,2.73-6.36,4.09-8.75,4.09c-2.39,0-4.69-1.4-6.9-4.21c-2.21-2.81-3.31-5.85-3.31-9.14c0-6.66,1.91-13.12,5.72-19.41
	c3.81-6.28,7.66-9.42,11.55-9.42c2.09,0,3.76,0.22,4.99,0.67c1.23,0.45,1.85,1.08,1.85,1.91c0,2.92-2.17,6.62-6.51,11.1
	c-4.34,4.49-6.99,7.22-7.96,8.19c-1.27,3.44-1.91,5.68-1.91,6.73c0,2.47,0.9,3.7,2.69,3.7c1.12,0,3.14-1.01,6.06-3.03
	c2.92-2.02,5.68-4.34,8.3-6.95c0-3.74,2.02-8.34,6.06-13.8c4.04-5.46,7.37-8.19,9.98-8.19c2.39,0,3.59,1.27,3.59,3.81
	c0,2.09-0.92,4.75-2.75,7.96c-1.83,3.22-4.02,6.69-6.56,10.43c0.52,1.42,1.16,2.41,1.91,2.97
	C296.81,147.3,297.86,147.58,299.2,147.58z M209.93,154.99c8.45,0,17.95-5.23,28.49-15.7c10.54-10.47,15.82-19.11,15.82-25.91
	c0-3.81-1.53-5.72-4.6-5.72c-5.38,0-10.92,2.06-16.6,6.17c-4.94,4.49-9.83,8.97-14.69,13.46c-0.97,0-1.46-0.97-1.46-2.92
	c-3.59,3.74-6.58,7.55-8.97,11.44c-2.39,3.89-3.59,7.82-3.59,11.78C204.32,152.52,206.19,154.99,209.93,154.99z M255.13,102.04
	c5.76,0,8.64,3.55,8.64,10.66c0,10.77-5.5,21.87-16.49,33.31c-10.99,11.44-22.47,17.16-34.44,17.16c-6.06,0-10.79-2.15-14.19-6.45
	c-3.4-4.3-5.1-9.7-5.1-16.21c0-8.08,3.5-16.25,10.49-24.51c6.99-8.26,15.09-15.09,24.28-20.47c9.2-5.38,16.6-8.08,22.21-8.08
	c2.02,0,4.23,1.16,6.62,3.48c2.39,2.32,3.59,4.15,3.59,5.5c0,0.97-1.16,1.98-3.48,3.03c-2.32,1.05-4.6,2.06-6.84,3.03L255.13,102.04
	z"/>
<path class="st1" d="M530.83,213.05v-24.8h9.47c2.86,0,4.92,0.51,6.18,1.52c1.26,1.01,1.88,2.67,1.88,4.97
	c0,1.61-0.34,2.87-1.01,3.8c-0.68,0.93-1.67,1.47-2.99,1.64c2.51,0.58,3.82,2.43,3.92,5.56c0,0.14,0,0.24,0,0.32l0.15,3.29
	c0.05,0.93,0.18,1.68,0.4,2.25c0.22,0.56,0.57,1.05,1.03,1.46h-6.26c-0.15-0.42-0.26-0.91-0.33-1.47c-0.08-0.57-0.12-1.36-0.14-2.39
	l-0.08-2.59v-0.66c0-1.44-0.35-2.43-1.05-2.96c-0.7-0.54-2.12-0.81-4.27-0.81h-1.8v10.89H530.83z M535.93,198.74h3.04
	c1.54,0,2.6-0.27,3.19-0.8c0.6-0.54,0.89-1.5,0.89-2.89c0-1.23-0.33-2.09-0.97-2.59c-0.65-0.49-1.84-0.74-3.55-0.74h-2.6V198.74z
	 M508.12,213.05l6.39-24.8h7.09l6.44,24.8h-5.69l-1.4-6.23h-6.08l-1.36,6.23H508.12z M515.71,203.1h4.5l-2.26-10.4L515.71,203.1z
	 M500.81,204.21h5.14c0,0.11,0.01,0.26,0.02,0.47c0.01,0.21,0.02,0.37,0.02,0.49c0,2.86-0.69,5-2.07,6.39
	c-1.38,1.39-3.5,2.08-6.34,2.08c-1.35,0-2.51-0.15-3.48-0.46c-0.97-0.31-1.8-0.79-2.5-1.43c-0.96-0.86-1.64-2.04-2.02-3.54
	c-0.4-1.5-0.59-4.12-0.59-7.86c0-2.55,0.12-4.58,0.35-6.09c0.23-1.51,0.59-2.63,1.08-3.37c0.77-1.14,1.71-1.96,2.84-2.47
	c1.13-0.51,2.57-0.76,4.33-0.76c2.87,0,4.96,0.65,6.27,1.96c1.31,1.31,1.97,3.42,1.98,6.31h-5.12v-0.59c0-1.35-0.25-2.35-0.75-3.01
	c-0.5-0.66-1.25-0.99-2.27-0.99c-1.27,0-2.13,0.46-2.59,1.37c-0.46,0.91-0.69,3.44-0.69,7.56c0,4.47,0.23,7.18,0.67,8.14
	c0.45,0.97,1.31,1.45,2.57,1.45c1.17,0,2-0.38,2.47-1.13c0.47-0.76,0.7-2.15,0.7-4.19V204.21z M465.96,213.05v-20.71h-6.08v-4.09
	h17.45v4.09h-6.08v20.71H465.96z M440.72,204.34h5.29v1.59c0,1.52,0.22,2.56,0.65,3.11c0.44,0.56,1.19,0.83,2.26,0.83
	c1.12,0,1.97-0.25,2.55-0.74c0.58-0.49,0.87-1.22,0.87-2.19c0-0.74-0.2-1.37-0.61-1.91c-0.4-0.53-1.28-1.21-2.63-2.05l-2.7-1.68
	c-2.33-1.42-3.82-2.58-4.45-3.51c-0.64-0.92-0.95-2.08-0.95-3.48c0-2.08,0.7-3.72,2.12-4.9c1.41-1.18,3.36-1.77,5.84-1.77
	c2.63,0,4.64,0.63,6.04,1.89c1.4,1.25,2.1,3.05,2.1,5.41c0,0.24,0,0.42-0.01,0.54c-0.01,0.13-0.02,0.24-0.03,0.34h-5.01v-0.66
	c0-1.34-0.25-2.3-0.75-2.88c-0.5-0.58-1.33-0.87-2.48-0.87c-0.85,0-1.52,0.22-2,0.65c-0.48,0.43-0.73,1.03-0.73,1.81
	c0,1.04,1.09,2.19,3.26,3.46c0.03,0.01,0.04,0.02,0.06,0.03l2.91,1.73c2.08,1.2,3.48,2.34,4.22,3.4c0.73,1.07,1.11,2.43,1.11,4.08
	c0,2.25-0.73,3.99-2.21,5.21c-1.47,1.23-3.58,1.84-6.32,1.84c-2.85,0-4.97-0.64-6.36-1.93c-1.4-1.29-2.09-3.25-2.09-5.9
	c0-0.28,0.03-0.74,0.08-1.38V204.34z M422.58,213.05v-24.8h14.57v4.12h-9.32v5.73h8.68v3.93h-8.68v6.82h9.54v4.19H422.58z
	 M408.43,213.05v-20.71h-6.08v-4.09h17.45v4.09h-6.08v20.71H408.43z M383.75,213.05l6.39-24.8h7.09l6.44,24.8h-5.69l-1.4-6.23h-6.08
	l-1.36,6.23H383.75z M391.34,203.1h4.5l-2.26-10.4L391.34,203.1z M367.43,213.05v-24.8h5.29v20.57h9.54v4.22H367.43z M336.23,213.05
	v-24.8h9.47c2.86,0,4.92,0.51,6.18,1.52c1.26,1.01,1.89,2.67,1.89,4.97c0,1.61-0.34,2.87-1.01,3.8c-0.68,0.93-1.67,1.47-2.99,1.64
	c2.51,0.58,3.82,2.43,3.92,5.56c0,0.14,0,0.24,0,0.32l0.15,3.29c0.05,0.93,0.18,1.68,0.4,2.25c0.22,0.56,0.57,1.05,1.03,1.46h-6.26
	c-0.15-0.42-0.26-0.91-0.33-1.47c-0.08-0.57-0.12-1.36-0.15-2.39l-0.07-2.59v-0.66c0-1.44-0.35-2.43-1.05-2.96
	c-0.7-0.54-2.13-0.81-4.27-0.81h-1.8v10.89H336.23z M341.33,198.74h3.04c1.53,0,2.6-0.27,3.19-0.8c0.6-0.54,0.89-1.5,0.89-2.89
	c0-1.23-0.33-2.09-0.98-2.59c-0.65-0.49-1.84-0.74-3.55-0.74h-2.6V198.74z M313.52,200.65c0-2.63,0.14-4.73,0.42-6.3
	c0.28-1.57,0.72-2.75,1.33-3.55c0.82-1.13,1.8-1.93,2.94-2.41c1.14-0.48,2.65-0.73,4.51-0.73c1.86,0,3.36,0.24,4.51,0.73
	c1.14,0.48,2.13,1.29,2.96,2.41c0.6,0.82,1.04,2.01,1.31,3.58c0.28,1.57,0.41,3.65,0.41,6.28c0,2.61-0.14,4.7-0.42,6.27
	c-0.28,1.57-0.72,2.76-1.31,3.58c-0.84,1.13-1.82,1.93-2.96,2.41c-1.14,0.48-2.65,0.73-4.51,0.73c-1.87,0-3.37-0.24-4.51-0.73
	c-1.14-0.48-2.12-1.29-2.94-2.41c-0.6-0.8-1.04-1.98-1.33-3.55C313.65,205.38,313.52,203.28,313.52,200.65z M318.91,200.65
	c0,4.08,0.27,6.64,0.82,7.7c0.55,1.06,1.55,1.59,3.03,1.59c1.45,0,2.44-0.52,2.97-1.55c0.53-1.03,0.8-3.61,0.8-7.73
	c0-4.12-0.27-6.71-0.81-7.76c-0.54-1.05-1.53-1.58-2.99-1.58c-1.46,0-2.46,0.53-3,1.58C319.18,193.94,318.91,196.53,318.91,200.65z
	 M295.65,213.05v-24.8h14.82v4.06h-9.54v5.86h9v3.96h-9v10.92H295.65z"/>
<path class="st0" d="M756.16,204.34h5.29v1.59c0,1.52,0.22,2.56,0.65,3.11c0.44,0.56,1.19,0.83,2.26,0.83
	c1.12,0,1.97-0.25,2.55-0.74c0.59-0.49,0.87-1.22,0.87-2.19c0-0.74-0.2-1.37-0.61-1.91c-0.4-0.53-1.28-1.21-2.63-2.05l-2.7-1.68
	c-2.33-1.42-3.82-2.58-4.45-3.51c-0.64-0.92-0.95-2.08-0.95-3.48c0-2.08,0.7-3.72,2.12-4.9c1.41-1.18,3.36-1.77,5.84-1.77
	c2.63,0,4.64,0.63,6.04,1.89c1.4,1.25,2.1,3.05,2.1,5.41c0,0.24,0,0.42-0.01,0.54c-0.01,0.13-0.02,0.24-0.03,0.34h-5.01v-0.66
	c0-1.34-0.25-2.3-0.75-2.88c-0.5-0.58-1.33-0.87-2.48-0.87c-0.85,0-1.52,0.22-2,0.65c-0.48,0.43-0.73,1.03-0.73,1.81
	c0,1.04,1.09,2.19,3.26,3.46c0.03,0.01,0.04,0.02,0.06,0.03l2.91,1.73c2.07,1.2,3.48,2.34,4.22,3.4c0.73,1.07,1.11,2.43,1.11,4.08
	c0,2.25-0.73,3.99-2.21,5.21c-1.47,1.23-3.58,1.84-6.32,1.84c-2.85,0-4.97-0.64-6.36-1.93c-1.4-1.29-2.09-3.25-2.09-5.9
	c0-0.28,0.03-0.74,0.08-1.38V204.34z M738.02,213.05v-24.8h14.57v4.12h-9.32v5.73h8.68v3.93h-8.68v6.82h9.54v4.19H738.02z
	 M727.91,213.05v-24.8h5.29v24.8H727.91z M706.14,213.05v-24.8h9.47c2.86,0,4.92,0.51,6.18,1.52c1.26,1.01,1.89,2.67,1.89,4.97
	c0,1.61-0.34,2.87-1.01,3.8c-0.68,0.93-1.67,1.47-2.99,1.64c2.51,0.58,3.82,2.43,3.92,5.56c0,0.14,0,0.24,0,0.32l0.15,3.29
	c0.05,0.93,0.18,1.68,0.4,2.25c0.22,0.56,0.57,1.05,1.03,1.46h-6.26c-0.15-0.42-0.26-0.91-0.33-1.47c-0.08-0.57-0.12-1.36-0.15-2.39
	l-0.07-2.59v-0.66c0-1.44-0.35-2.43-1.05-2.96c-0.7-0.54-2.13-0.81-4.27-0.81h-1.8v10.89H706.14z M711.24,198.74h3.04
	c1.53,0,2.6-0.27,3.19-0.8c0.6-0.54,0.89-1.5,0.89-2.89c0-1.23-0.33-2.09-0.98-2.59c-0.65-0.49-1.84-0.74-3.55-0.74h-2.6V198.74z
	 M683.43,200.65c0-2.63,0.14-4.73,0.42-6.3c0.28-1.57,0.72-2.75,1.33-3.55c0.82-1.13,1.8-1.93,2.94-2.41
	c1.14-0.48,2.65-0.73,4.51-0.73c1.86,0,3.36,0.24,4.51,0.73c1.14,0.48,2.13,1.29,2.96,2.41c0.6,0.82,1.04,2.01,1.31,3.58
	c0.28,1.57,0.41,3.65,0.41,6.28c0,2.61-0.14,4.7-0.42,6.27c-0.28,1.57-0.72,2.76-1.31,3.58c-0.84,1.13-1.82,1.93-2.96,2.41
	c-1.14,0.48-2.65,0.73-4.51,0.73c-1.87,0-3.37-0.24-4.51-0.73c-1.14-0.48-2.12-1.29-2.94-2.41c-0.6-0.8-1.04-1.98-1.33-3.55
	C683.57,205.38,683.43,203.28,683.43,200.65z M688.82,200.65c0,4.08,0.27,6.64,0.82,7.7c0.55,1.06,1.55,1.59,3.03,1.59
	c1.45,0,2.44-0.52,2.97-1.55c0.53-1.03,0.8-3.61,0.8-7.73c0-4.12-0.27-6.71-0.81-7.76c-0.54-1.05-1.53-1.58-2.99-1.58
	c-1.46,0-2.46,0.53-3,1.58C689.09,193.94,688.82,196.53,688.82,200.65z M662.8,204.34h5.29v1.59c0,1.52,0.22,2.56,0.65,3.11
	c0.43,0.56,1.19,0.83,2.26,0.83c1.12,0,1.97-0.25,2.55-0.74c0.58-0.49,0.87-1.22,0.87-2.19c0-0.74-0.2-1.37-0.61-1.91
	c-0.4-0.53-1.28-1.21-2.64-2.05l-2.7-1.68c-2.33-1.42-3.82-2.58-4.45-3.51c-0.64-0.92-0.95-2.08-0.95-3.48c0-2.08,0.7-3.72,2.12-4.9
	c1.41-1.18,3.36-1.77,5.84-1.77c2.63,0,4.64,0.63,6.04,1.89c1.4,1.25,2.1,3.05,2.1,5.41c0,0.24,0,0.42-0.01,0.54
	c-0.01,0.13-0.02,0.24-0.03,0.34h-5.01v-0.66c0-1.34-0.25-2.3-0.75-2.88c-0.5-0.58-1.33-0.87-2.48-0.87c-0.85,0-1.51,0.22-2,0.65
	c-0.48,0.43-0.73,1.03-0.73,1.81c0,1.04,1.09,2.19,3.26,3.46c0.03,0.01,0.04,0.02,0.06,0.03l2.91,1.73c2.08,1.2,3.48,2.34,4.22,3.4
	c0.74,1.07,1.11,2.43,1.11,4.08c0,2.25-0.74,3.99-2.21,5.21c-1.47,1.23-3.58,1.84-6.32,1.84c-2.85,0-4.97-0.64-6.36-1.93
	c-1.4-1.29-2.09-3.25-2.09-5.9c0-0.28,0.03-0.74,0.08-1.38V204.34z M642.13,204.34h5.29v1.59c0,1.52,0.22,2.56,0.65,3.11
	c0.43,0.56,1.19,0.83,2.26,0.83c1.12,0,1.97-0.25,2.55-0.74c0.59-0.49,0.88-1.22,0.88-2.19c0-0.74-0.2-1.37-0.61-1.91
	c-0.4-0.53-1.28-1.21-2.63-2.05l-2.7-1.68c-2.33-1.42-3.82-2.58-4.45-3.51c-0.64-0.92-0.95-2.08-0.95-3.48c0-2.08,0.7-3.72,2.12-4.9
	c1.41-1.18,3.36-1.77,5.84-1.77c2.63,0,4.64,0.63,6.04,1.89c1.4,1.25,2.1,3.05,2.1,5.41c0,0.24,0,0.42-0.01,0.54
	c-0.01,0.13-0.02,0.24-0.03,0.34h-5.01v-0.66c0-1.34-0.25-2.3-0.75-2.88c-0.5-0.58-1.33-0.87-2.48-0.87c-0.85,0-1.51,0.22-2,0.65
	c-0.48,0.43-0.73,1.03-0.73,1.81c0,1.04,1.09,2.19,3.26,3.46c0.03,0.01,0.04,0.02,0.06,0.03l2.91,1.73c2.07,1.2,3.48,2.34,4.22,3.4
	c0.73,1.07,1.11,2.43,1.11,4.08c0,2.25-0.73,3.99-2.21,5.21c-1.47,1.23-3.58,1.84-6.32,1.84c-2.85,0-4.97-0.64-6.36-1.93
	c-1.4-1.29-2.09-3.25-2.09-5.9c0-0.28,0.03-0.74,0.08-1.38V204.34z M623.99,213.05v-24.8h14.57v4.12h-9.32v5.73h8.68v3.93h-8.68
	v6.82h9.54v4.19H623.99z M614.6,204.21h5.14c0,0.11,0.01,0.26,0.02,0.47c0.01,0.21,0.02,0.37,0.02,0.49c0,2.86-0.69,5-2.07,6.39
	c-1.38,1.39-3.5,2.08-6.34,2.08c-1.35,0-2.51-0.15-3.48-0.46c-0.97-0.31-1.8-0.79-2.5-1.43c-0.96-0.86-1.63-2.04-2.02-3.54
	c-0.4-1.5-0.59-4.12-0.59-7.86c0-2.55,0.12-4.58,0.35-6.09c0.23-1.51,0.59-2.63,1.08-3.37c0.77-1.14,1.71-1.96,2.84-2.47
	c1.13-0.51,2.57-0.76,4.33-0.76c2.87,0,4.96,0.65,6.27,1.96c1.31,1.31,1.97,3.42,1.98,6.31h-5.12v-0.59c0-1.35-0.25-2.35-0.75-3.01
	c-0.5-0.66-1.25-0.99-2.27-0.99c-1.27,0-2.13,0.46-2.59,1.37c-0.46,0.91-0.69,3.44-0.69,7.56c0,4.47,0.23,7.18,0.67,8.14
	c0.45,0.97,1.31,1.45,2.57,1.45c1.17,0,2-0.38,2.47-1.13c0.47-0.76,0.7-2.15,0.7-4.19V204.21z M593.93,204.21h5.14
	c0,0.11,0.01,0.26,0.02,0.47c0.01,0.21,0.02,0.37,0.02,0.49c0,2.86-0.69,5-2.07,6.39c-1.38,1.39-3.5,2.08-6.34,2.08
	c-1.35,0-2.51-0.15-3.48-0.46c-0.97-0.31-1.8-0.79-2.5-1.43c-0.96-0.86-1.63-2.04-2.02-3.54c-0.4-1.5-0.59-4.12-0.59-7.86
	c0-2.55,0.12-4.58,0.35-6.09c0.23-1.51,0.59-2.63,1.08-3.37c0.77-1.14,1.71-1.96,2.84-2.47c1.13-0.51,2.57-0.76,4.33-0.76
	c2.87,0,4.96,0.65,6.27,1.96c1.31,1.31,1.97,3.42,1.98,6.31h-5.12v-0.59c0-1.35-0.25-2.35-0.75-3.01c-0.5-0.66-1.25-0.99-2.27-0.99
	c-1.27,0-2.13,0.46-2.59,1.37c-0.46,0.91-0.69,3.44-0.69,7.56c0,4.47,0.23,7.18,0.67,8.14c0.45,0.97,1.31,1.45,2.57,1.45
	c1.17,0,2-0.38,2.47-1.13c0.46-0.76,0.7-2.15,0.7-4.19V204.21z M559.95,213.05l6.39-24.8h7.09l6.44,24.8h-5.69l-1.4-6.23h-6.08
	l-1.36,6.23H559.95z M567.54,203.1h4.5l-2.26-10.4L567.54,203.1z"/>
<path class="st1" d="M182.08,81.77c-0.25,8.76-0.49,17.51-0.74,26.27c9.41,0.12,20.33-2.95,24.35-26.27
	C197.82,81.77,189.95,81.77,182.08,81.77 M118.89,108.03c1.6,1.6,3.19,3.19,4.79,4.79c17.26-0.22,34.34-0.53,51.59-0.75l-0.47-25.14
	c-1.37-5.71-18.61-3.19-23.49-3.26c-10.66,7.32-21.32,14.65-31.98,21.97C119.18,106.43,119.04,107.23,118.89,108.03z M45.56,165.02
	c-3.39,0-6.77,0.01-10.16,0.01l-4.6-4.28c-5.56-5.17-18.26-3.89-7.99-20.97c-3.72-14.09-1.3-21.29,11.81-22.63
	c22.42-2.3,47.89-7.16,71.21-10.25c13.34-10.78,28.33-21.77,41.67-32.55c31.04-0.26,68.23,0.6,99.27,0.34
	c-27.59,15.32-71.83,40.34-62.01,88.94c-26.68,0-57.53,0-84.21,0c-10.04-20.54-16.46-26.05-28.99-25.87l-19.9,0.29
	C45.83,138.13,44.07,145.6,45.56,165.02z"/>
<path class="st1" d="M72.09,156.36c4.7,0,8.51,3.81,8.51,8.51c0,4.69-3.81,8.51-8.51,8.51c-4.69,0-8.51-3.81-8.51-8.51
	C63.58,160.17,67.39,156.36,72.09,156.36 M72.09,143.23c11.95,0,21.64,9.7,21.64,21.64c0,11.94-9.69,21.64-21.64,21.64
	c-11.94,0-21.64-9.7-21.64-21.64C50.45,152.93,60.15,143.23,72.09,143.23z"/>
<path class="st1" d="M665.42,107.6h2.35c1.12,0,1.88-0.17,2.29-0.5c0.41-0.33,0.61-0.78,0.61-1.33c0-0.35-0.1-0.67-0.3-0.95
	c-0.2-0.28-0.47-0.49-0.82-0.62c-0.35-0.14-1-0.21-1.94-0.21h-2.2V107.6z M663.49,114.34v-11.98h4.12c1.41,0,2.43,0.11,3.06,0.33
	c0.63,0.22,1.13,0.61,1.51,1.16c0.37,0.55,0.56,1.14,0.56,1.76c0,0.88-0.31,1.64-0.94,2.29c-0.62,0.65-1.46,1.01-2.49,1.09
	c0.42,0.18,0.77,0.39,1.02,0.64c0.48,0.47,1.07,1.26,1.77,2.38l1.46,2.34h-2.36l-1.06-1.89c-0.84-1.48-1.51-2.41-2.02-2.79
	c-0.35-0.28-0.87-0.41-1.55-0.41h-1.13v5.09H663.49z M668.38,98.89c-1.57,0-3.09,0.4-4.57,1.2c-1.48,0.8-2.64,1.95-3.48,3.44
	c-0.84,1.49-1.25,3.04-1.25,4.66c0,1.6,0.41,3.14,1.23,4.61c0.82,1.47,1.97,2.62,3.45,3.44c1.48,0.82,3.01,1.23,4.62,1.23
	c1.6,0,3.14-0.41,4.62-1.23c1.48-0.82,2.62-1.97,3.44-3.44c0.82-1.47,1.22-3.01,1.22-4.61c0-1.62-0.41-3.17-1.24-4.66
	c-0.83-1.49-1.99-2.63-3.48-3.44C671.45,99.3,669.93,98.89,668.38,98.89z M668.38,97.05c1.87,0,3.69,0.48,5.48,1.43
	c1.78,0.96,3.17,2.33,4.16,4.12c0.99,1.78,1.49,3.65,1.49,5.59c0,1.92-0.49,3.76-1.47,5.53c-0.98,1.77-2.35,3.15-4.12,4.13
	c-1.77,0.98-3.61,1.47-5.54,1.47c-1.93,0-3.78-0.49-5.54-1.47c-1.77-0.98-3.14-2.35-4.13-4.13c-0.99-1.77-1.48-3.61-1.48-5.53
	c0-1.94,0.5-3.8,1.5-5.59c1-1.79,2.39-3.16,4.17-4.12C664.68,97.53,666.51,97.05,668.38,97.05z"/>
</svg>
