<?xml version="1.0" encoding="utf-8"?>
<!-- Generator: Adobe Illustrator 24.2.1, SVG Export Plug-In . SVG Version: 6.00 Build 0)  -->
<svg version="1.1" id="Layer_1" xmlns="http://www.w3.org/2000/svg" xmlns:xlink="http://www.w3.org/1999/xlink" x="0px" y="0px"
	 viewBox="0 0 792 288" style="enable-background:new 0 0 792 288;" xml:space="preserve">
<style type="text/css">
	.st0{fill:#FFFFFF;}
	.st1{fill-rule:evenodd;clip-rule:evenodd;fill:#E3000F;}
	.st2{fill-rule:evenodd;clip-rule:evenodd;}
</style>
<g>
	<path class="st0" d="M775,288H17c-9.4,0-17-7.6-17-17V17C0,7.6,7.6,0,17,0h758c9.4,0,17,7.6,17,17v254C792,280.4,784.4,288,775,288
		z"/>
	<path class="st1" d="M635.2,141c4.5-1.4,8.3-3.4,11.3-6.3s4.6-5.1,4.6-6.6c0-0.6-0.3-0.9-0.8-0.9c-2.3,0-5,1.4-8.2,4.3
		C639,134.3,636.7,137.4,635.2,141 M640.8,154.5c3.7,0,7.2-0.8,10.5-2.4s7.3-3.9,11.9-6.9l-0.2,4.7c-6.2,4.7-11.2,8.2-15.1,10.5
		c-3.8,2.3-7.9,3.5-12.1,3.5c-4,0-7.1-1.2-9.3-3.7s-3.4-5.9-3.4-10.3c0-7.8,3.1-14.6,9.4-20.5c6.2-5.9,13.3-8.8,21-8.8
		c4.6,0,6.8,1.7,6.8,5.2c0,5-2.6,9.1-7.7,12.1c-5.2,3.1-11.5,5.9-18.8,8.4v2.4c0,1.8,0.6,3.2,1.8,4.3
		C636.9,154,638.6,154.5,640.8,154.5z M617.4,147.6c1.3,0,2.4-0.1,3.5-0.4s2.3-0.9,3.8-1.9c-0.2,1.5-0.2,2.6-0.2,3.5
		c0,0.5,0,1,0.1,1.4c-2.2,1.4-4.2,2.4-5.7,3c-1.6,0.6-3.1,0.9-4.6,0.9c-1.4,0-2.6-0.2-3.5-0.7c-0.9-0.4-2.4-1.5-4.4-3.1
		c-3.4,3.4-6.8,6.4-10.2,9.1s-6.4,4.1-8.8,4.1s-4.7-1.4-6.9-4.2c-2.2-2.8-3.3-5.9-3.3-9.1c0-6.7,1.9-13.1,5.7-19.4
		c3.8-6.3,7.7-9.4,11.5-9.4c2.1,0,3.8,0.2,5,0.7s1.8,1.1,1.8,1.9c0,2.9-2.2,6.6-6.5,11.1c-4.3,4.5-7,7.2-8,8.2
		c-1.3,3.4-1.9,5.7-1.9,6.7c0,2.5,0.9,3.7,2.7,3.7c1.1,0,3.1-1,6.1-3s5.7-4.3,8.3-6.9c0-3.7,2-8.3,6.1-13.8c4-5.5,7.4-8.2,10-8.2
		c2.4,0,3.6,1.3,3.6,3.8c0,2.1-0.9,4.8-2.8,8c-1.8,3.2-4,6.7-6.6,10.4c0.5,1.4,1.2,2.4,1.9,3C615,147.3,616,147.6,617.4,147.6z
		 M561.5,153.5c2,0,4.2-0.6,6.6-1.7s5.7-3.4,10.2-6.6l-0.1,4.8c-3.5,2.7-7,5.4-10.5,8.1c-5.1,3.5-9,5.3-11.8,5.3s-5.1-1.4-7-4.2
		c-1.9-2.8-2.9-5.9-2.9-9.1c0-6.5,2.2-12.4,6.5-17.8c4.3-5.4,9.3-8.1,14.9-8.1c1.1,0,2.1,0.3,2.9,0.9c0.8,0.6,1.2,1.3,1.2,2.2
		c0,2.2-2.7,5.9-8.2,10.9c-5.5,5-8.2,8.4-8.2,10.1C555.1,151.8,557.3,153.5,561.5,153.5z M577.9,108.6c2.4,0,3.6,1.2,3.6,3.7
		c0,2.2-0.9,4.4-2.6,6.6c-1.7,2.1-3.7,3.2-6,3.2c-1.3,0-2.5-0.5-3.3-1.4s-1.3-2.1-1.3-3.5c0-2.2,1-4.1,3.1-5.9
		C573.5,109.4,575.7,108.6,577.9,108.6z M532.7,152.4c2,0,4.6-0.9,7.6-2.7c3.4-2.2,5.7-3.7,6.8-4.5l-0.1,4.8
		c-3.4,2.8-7.2,5.7-11.3,8.8c-4.1,3.1-7.6,4.6-10.5,4.6c-2,0-3.7-0.8-5.2-2.4s-2.1-3.5-2.1-5.8c0-3.3,0.9-6.3,2.6-8.9
		c1.7-2.7,4.3-6,7.8-10l-12.5,2.6c-2.4,2.5-4.2,4.4-5.5,5.6c-1.3,1.2-3.5,3.1-6.7,5.6c0-0.8,0-1.5,0-2.2c0-0.8,0.1-1.6,0.2-2.6
		c1.4-1.1,2.6-2.1,3.5-2.9c0.9-0.8,1.8-1.8,2.7-2.9c-1.8-0.3-2.7-1.3-2.7-3c0-3.1,1.8-6.5,5.3-10.3c3.5-3.8,6.3-5.7,8.4-5.7
		c1.3,0,2,0.9,2,2.7c0,0.6-0.2,1.3-0.6,2.2l15.3-2c1.2,0,2.3,0.7,3.3,2s1.5,2.9,1.5,4.7c0,1.1-2.2,3.9-6.5,8.5s-6.5,8.2-6.5,10.8
		C529.5,151.4,530.6,152.4,532.7,152.4z M440.8,151.1c12.3,0,24.9-3.1,37.7-9.4c12.9-6.3,19.4-14.4,19.4-24.4
		c0-4.9-2.6-8.6-7.7-11.1s-13.3-3.7-24.6-3.7c-1.4,4.7-4.6,10.1-9.6,16.2c-5.1,6.1-10,11.8-14.6,17.3c-4.6,5.5-7,9.4-7,11.9
		C434.5,150,436.6,151.1,440.8,151.1z M469.8,86.1c11.7,0,20.6,2.3,26.8,6.9c6.2,4.6,9.3,12,9.3,22c0,9.9-4,18.5-12,26
		s-17.8,13.2-29.3,17.2s-22,6-31.5,6c-3.9,0-6.6-0.5-8.1-1.5s-2.2-2.8-2.2-5.4c0-5.5,2.2-11.2,6.6-17.3c4.4-6.1,10.3-13.2,17.6-21.4
		c7.4-8.2,11.6-13.5,12.6-15.9c-5.2,0.6-9.5,1.3-12.8,2c-3.3,0.8-6.9,1.9-10.7,3.5c0.3,0,0.7,0,1.1,0s1,0,1.7-0.1
		c1.6,0,3,0.1,4.2,0.3s1.7,0.5,1.7,1.1c0,0.9-2.6,2.2-7.9,3.8c-5.3,1.7-9.8,2.5-13.5,2.5c-2.8,0-4.3-1.3-4.3-3.9
		c0-1.3,0.2-2.7,0.7-4.2c0.5-1.5,1.1-4.1,2-7.6c0.9-3.5,7-6.7,18.3-9.6C451.4,87.6,461.3,86.1,469.8,86.1z M372.9,152.4
		c2,0,4.6-0.9,7.6-2.7c3.4-2.2,5.6-3.7,6.8-4.5l-0.1,4.8c-3.4,2.8-7.2,5.7-11.3,8.8c-4.1,3.1-7.6,4.6-10.5,4.6c-2,0-3.7-0.8-5.2-2.4
		s-2.1-3.5-2.1-5.8c0-3.3,0.9-6.3,2.6-8.9s4.3-6,7.9-10l-12.5,2.6c-2.4,2.5-4.2,4.4-5.5,5.6c-1.3,1.2-3.5,3.1-6.7,5.6
		c0-0.8,0-1.5,0-2.2c0-0.8,0.1-1.6,0.2-2.6c1.4-1.1,2.6-2.1,3.5-2.9c0.9-0.8,1.8-1.8,2.7-2.9c-1.8-0.3-2.7-1.3-2.7-3
		c0-3.1,1.8-6.5,5.3-10.3c3.5-3.8,6.3-5.7,8.4-5.7c1.4,0,2,0.9,2,2.7c0,0.6-0.2,1.3-0.6,2.2l15.3-2c1.2,0,2.3,0.7,3.3,2
		s1.5,2.9,1.5,4.7c0,1.1-2.2,3.9-6.5,8.5s-6.5,8.2-6.5,10.8C369.7,151.4,370.8,152.4,372.9,152.4z M317,141
		c4.5-1.4,8.3-3.4,11.3-6.3c3.1-2.8,4.6-5.1,4.6-6.6c0-0.6-0.3-0.9-0.8-0.9c-2.3,0-5,1.4-8.2,4.3C320.8,134.3,318.5,137.4,317,141z
		 M322.6,154.5c3.7,0,7.2-0.8,10.5-2.4c3.4-1.6,7.3-3.9,11.9-6.9l-0.2,4.7c-6.2,4.7-11.2,8.2-15.1,10.5c-3.9,2.3-7.9,3.5-12.1,3.5
		c-4,0-7.1-1.2-9.3-3.7s-3.4-5.9-3.4-10.3c0-7.8,3.1-14.6,9.4-20.5c6.2-5.9,13.3-8.8,21-8.8c4.6,0,6.8,1.7,6.8,5.2
		c0,5-2.6,9.1-7.7,12.1c-5.2,3.1-11.5,5.9-18.9,8.4v2.4c0,1.8,0.6,3.2,1.9,4.3C318.8,154,320.5,154.5,322.6,154.5z M299.2,147.6
		c1.3,0,2.4-0.1,3.5-0.4c1-0.3,2.3-0.9,3.8-1.9c-0.1,1.5-0.2,2.6-0.2,3.5c0,0.5,0,1,0.1,1.4c-2.2,1.4-4.1,2.4-5.7,3
		s-3.1,0.9-4.6,0.9c-1.4,0-2.6-0.2-3.5-0.7c-0.9-0.4-2.4-1.5-4.4-3.1c-3.4,3.4-6.8,6.4-10.2,9.1s-6.4,4.1-8.8,4.1s-4.7-1.4-6.9-4.2
		c-2.2-2.8-3.3-5.9-3.3-9.1c0-6.7,1.9-13.1,5.7-19.4c3.8-6.3,7.7-9.4,11.5-9.4c2.1,0,3.8,0.2,5,0.7c1.2,0.4,1.9,1.1,1.9,1.9
		c0,2.9-2.2,6.6-6.5,11.1c-4.3,4.5-7,7.2-8,8.2c-1.3,3.4-1.9,5.7-1.9,6.7c0,2.5,0.9,3.7,2.7,3.7c1.1,0,3.1-1,6.1-3
		c2.9-2,5.7-4.3,8.3-6.9c0-3.7,2-8.3,6.1-13.8c4-5.5,7.4-8.2,10-8.2c2.4,0,3.6,1.3,3.6,3.8c0,2.1-0.9,4.8-2.8,8
		c-1.8,3.2-4,6.7-6.6,10.4c0.5,1.4,1.2,2.4,1.9,3C296.8,147.3,297.9,147.6,299.2,147.6z M209.9,155c8.4,0,17.9-5.2,28.5-15.7
		c10.5-10.5,15.8-19.1,15.8-25.9c0-3.8-1.5-5.7-4.6-5.7c-5.4,0-10.9,2.1-16.6,6.2c-4.9,4.5-9.8,9-14.7,13.5c-1,0-1.5-1-1.5-2.9
		c-3.6,3.7-6.6,7.5-9,11.4s-3.6,7.8-3.6,11.8C204.3,152.5,206.2,155,209.9,155z M255.1,102c5.8,0,8.6,3.6,8.6,10.7
		c0,10.8-5.5,21.9-16.5,33.3s-22.5,17.2-34.4,17.2c-6.1,0-10.8-2.1-14.2-6.4c-3.4-4.3-5.1-9.7-5.1-16.2c0-8.1,3.5-16.3,10.5-24.5
		s15.1-15.1,24.3-20.5c9.2-5.4,16.6-8.1,22.2-8.1c2,0,4.2,1.2,6.6,3.5c2.4,2.3,3.6,4.2,3.6,5.5c0,1-1.2,2-3.5,3
		c-2.3,1.1-4.6,2.1-6.8,3L255.1,102z"/>
	<path class="st2" d="M530.8,213.1v-24.8h9.5c2.9,0,4.9,0.5,6.2,1.5c1.3,1,1.9,2.7,1.9,5c0,1.6-0.3,2.9-1,3.8
		c-0.7,0.9-1.7,1.5-3,1.6c2.5,0.6,3.8,2.4,3.9,5.6c0,0.1,0,0.2,0,0.3l0.2,3.3c0,0.9,0.2,1.7,0.4,2.3c0.2,0.6,0.6,1.1,1,1.5h-6.3
		c-0.2-0.4-0.3-0.9-0.3-1.5c-0.1-0.6-0.1-1.4-0.1-2.4l-0.1-2.6V206c0-1.4-0.3-2.4-1-3c-0.7-0.5-2.1-0.8-4.3-0.8h-1.8v10.9
		L530.8,213.1L530.8,213.1z M535.9,198.7h3c1.5,0,2.6-0.3,3.2-0.8c0.6-0.5,0.9-1.5,0.9-2.9c0-1.2-0.3-2.1-1-2.6
		c-0.7-0.5-1.8-0.7-3.5-0.7h-2.6L535.9,198.7L535.9,198.7z M508.1,213.1l6.4-24.8h7.1l6.4,24.8h-5.7l-1.4-6.2h-6.1l-1.4,6.2H508.1z
		 M515.7,203.1h4.5l-2.3-10.4L515.7,203.1z M500.8,204.2h5.1c0,0.1,0,0.3,0,0.5c0,0.2,0,0.4,0,0.5c0,2.9-0.7,5-2.1,6.4
		s-3.5,2.1-6.3,2.1c-1.4,0-2.5-0.1-3.5-0.5c-1-0.3-1.8-0.8-2.5-1.4c-1-0.9-1.6-2-2-3.5c-0.4-1.5-0.6-4.1-0.6-7.9
		c0-2.6,0.1-4.6,0.4-6.1s0.6-2.6,1.1-3.4c0.8-1.1,1.7-2,2.8-2.5s2.6-0.8,4.3-0.8c2.9,0,5,0.6,6.3,2c1.3,1.3,2,3.4,2,6.3h-5.1v-0.6
		c0-1.4-0.3-2.4-0.8-3c-0.5-0.7-1.3-1-2.3-1c-1.3,0-2.1,0.5-2.6,1.4c-0.5,0.9-0.7,3.4-0.7,7.6c0,4.5,0.2,7.2,0.7,8.1
		c0.5,1,1.3,1.4,2.6,1.4c1.2,0,2-0.4,2.5-1.1c0.5-0.8,0.7-2.1,0.7-4.2L500.8,204.2L500.8,204.2z M466,213.1v-20.7h-6.1v-4.1h17.5
		v4.1h-6.1V213L466,213.1L466,213.1z M440.7,204.3h5.3v1.6c0,1.5,0.2,2.6,0.6,3.1c0.4,0.6,1.2,0.8,2.3,0.8c1.1,0,2-0.3,2.5-0.7
		s0.9-1.2,0.9-2.2c0-0.7-0.2-1.4-0.6-1.9c-0.4-0.5-1.3-1.2-2.6-2.1l-2.7-1.7c-2.3-1.4-3.8-2.6-4.5-3.5c-0.6-0.9-1-2.1-1-3.5
		c0-2.1,0.7-3.7,2.1-4.9c1.4-1.2,3.4-1.8,5.8-1.8c2.6,0,4.6,0.6,6,1.9c1.4,1.3,2.1,3.1,2.1,5.4c0,0.2,0,0.4,0,0.5c0,0.1,0,0.2,0,0.3
		h-5v-0.7c0-1.3-0.3-2.3-0.8-2.9s-1.3-0.9-2.5-0.9c-0.9,0-1.5,0.2-2,0.6s-0.7,1-0.7,1.8c0,1,1.1,2.2,3.3,3.5c0,0,0,0,0.1,0l2.9,1.7
		c2.1,1.2,3.5,2.3,4.2,3.4c0.7,1.1,1.1,2.4,1.1,4.1c0,2.3-0.7,4-2.2,5.2c-1.5,1.2-3.6,1.8-6.3,1.8c-2.9,0-5-0.6-6.4-1.9
		c-1.4-1.3-2.1-3.3-2.1-5.9C440.7,205.5,440.7,205,440.7,204.3L440.7,204.3L440.7,204.3z M422.6,213.1v-24.8h14.6v4.1h-9.3v5.7h8.7
		v3.9h-8.7v6.8h9.5v4.2L422.6,213.1L422.6,213.1z M408.4,213.1v-20.7h-6.1v-4.1h17.5v4.1h-6.1V213L408.4,213.1L408.4,213.1z
		 M383.8,213.1l6.4-24.8h7.1l6.4,24.8H398l-1.4-6.2h-6.1l-1.4,6.2H383.8z M391.3,203.1h4.5l-2.3-10.4L391.3,203.1z M367.4,213.1
		v-24.8h5.3v20.6h9.5v4.2L367.4,213.1L367.4,213.1z M336.2,213.1v-24.8h9.5c2.9,0,4.9,0.5,6.2,1.5c1.3,1,1.9,2.7,1.9,5
		c0,1.6-0.3,2.9-1,3.8c-0.7,0.9-1.7,1.5-3,1.6c2.5,0.6,3.8,2.4,3.9,5.6c0,0.1,0,0.2,0,0.3l0.1,3.3c0,0.9,0.2,1.7,0.4,2.3
		c0.2,0.6,0.6,1.1,1,1.5H349c-0.1-0.4-0.3-0.9-0.3-1.5c-0.1-0.6-0.1-1.4-0.1-2.4l-0.1-2.6V206c0-1.4-0.4-2.4-1-3
		c-0.7-0.5-2.1-0.8-4.3-0.8h-1.8v10.9L336.2,213.1L336.2,213.1z M341.3,198.7h3c1.5,0,2.6-0.3,3.2-0.8c0.6-0.5,0.9-1.5,0.9-2.9
		c0-1.2-0.3-2.1-1-2.6c-0.6-0.5-1.8-0.7-3.5-0.7h-2.6L341.3,198.7L341.3,198.7z M313.5,200.6c0-2.6,0.1-4.7,0.4-6.3s0.7-2.8,1.3-3.6
		c0.8-1.1,1.8-1.9,2.9-2.4c1.1-0.5,2.6-0.7,4.5-0.7c1.9,0,3.4,0.2,4.5,0.7c1.1,0.5,2.1,1.3,3,2.4c0.6,0.8,1,2,1.3,3.6
		c0.3,1.6,0.4,3.6,0.4,6.3c0,2.6-0.1,4.7-0.4,6.3s-0.7,2.8-1.3,3.6c-0.8,1.1-1.8,1.9-3,2.4c-1.1,0.5-2.6,0.7-4.5,0.7
		c-1.9,0-3.4-0.2-4.5-0.7c-1.1-0.5-2.1-1.3-2.9-2.4c-0.6-0.8-1-2-1.3-3.6C313.6,205.4,313.5,203.3,313.5,200.6z M318.9,200.6
		c0,4.1,0.3,6.6,0.8,7.7c0.5,1.1,1.5,1.6,3,1.6c1.5,0,2.4-0.5,3-1.6s0.8-3.6,0.8-7.7s-0.3-6.7-0.8-7.8c-0.5-1.1-1.5-1.6-3-1.6
		s-2.5,0.5-3,1.6C319.2,193.9,318.9,196.5,318.9,200.6z M295.6,213.1v-24.8h14.8v4.1h-9.5v5.9h9v4h-9v10.9H295.6z"/>
	<path class="st1" d="M756.2,204.3h5.3v1.6c0,1.5,0.2,2.6,0.7,3.1c0.4,0.6,1.2,0.8,2.3,0.8c1.1,0,2-0.3,2.5-0.7
		c0.6-0.5,0.9-1.2,0.9-2.2c0-0.7-0.2-1.4-0.6-1.9c-0.4-0.5-1.3-1.2-2.6-2.1l-2.7-1.7c-2.3-1.4-3.8-2.6-4.5-3.5c-0.6-0.9-1-2.1-1-3.5
		c0-2.1,0.7-3.7,2.1-4.9c1.4-1.2,3.4-1.8,5.8-1.8c2.6,0,4.6,0.6,6,1.9c1.4,1.3,2.1,3.1,2.1,5.4c0,0.2,0,0.4,0,0.5c0,0.1,0,0.2,0,0.3
		h-5v-0.7c0-1.3-0.3-2.3-0.8-2.9s-1.3-0.9-2.5-0.9c-0.8,0-1.5,0.2-2,0.6s-0.7,1-0.7,1.8c0,1,1.1,2.2,3.3,3.5c0,0,0,0,0.1,0l2.9,1.7
		c2.1,1.2,3.5,2.3,4.2,3.4c0.7,1.1,1.1,2.4,1.1,4.1c0,2.3-0.7,4-2.2,5.2c-1.5,1.2-3.6,1.8-6.3,1.8c-2.8,0-5-0.6-6.4-1.9
		c-1.4-1.3-2.1-3.3-2.1-5.9C756.1,205.5,756.1,205,756.2,204.3L756.2,204.3L756.2,204.3z M738,213.1v-24.8h14.6v4.1h-9.3v5.7h8.7
		v3.9h-8.7v6.8h9.5v4.2L738,213.1L738,213.1z M727.9,213.1v-24.8h5.3v24.8H727.9z M706.1,213.1v-24.8h9.5c2.9,0,4.9,0.5,6.2,1.5
		c1.3,1,1.9,2.7,1.9,5c0,1.6-0.3,2.9-1,3.8c-0.7,0.9-1.7,1.5-3,1.6c2.5,0.6,3.8,2.4,3.9,5.6c0,0.1,0,0.2,0,0.3l0.2,3.3
		c0,0.9,0.2,1.7,0.4,2.3c0.2,0.6,0.6,1.1,1,1.5h-6.3c-0.2-0.4-0.3-0.9-0.3-1.5c-0.1-0.6-0.1-1.4-0.2-2.4l-0.1-2.6V206
		c0-1.4-0.3-2.4-1-3c-0.7-0.5-2.1-0.8-4.3-0.8h-1.8v10.9L706.1,213.1L706.1,213.1z M711.2,198.7h3c1.5,0,2.6-0.3,3.2-0.8
		c0.6-0.5,0.9-1.5,0.9-2.9c0-1.2-0.3-2.1-1-2.6c-0.7-0.5-1.8-0.7-3.5-0.7h-2.6L711.2,198.7L711.2,198.7z M683.4,200.6
		c0-2.6,0.1-4.7,0.4-6.3c0.3-1.6,0.7-2.8,1.3-3.6c0.8-1.1,1.8-1.9,2.9-2.4c1.1-0.5,2.7-0.7,4.5-0.7s3.4,0.2,4.5,0.7
		c1.1,0.5,2.1,1.3,3,2.4c0.6,0.8,1,2,1.3,3.6c0.3,1.6,0.4,3.6,0.4,6.3c0,2.6-0.1,4.7-0.4,6.3c-0.3,1.6-0.7,2.8-1.3,3.6
		c-0.8,1.1-1.8,1.9-3,2.4c-1.1,0.5-2.7,0.7-4.5,0.7c-1.9,0-3.4-0.2-4.5-0.7c-1.1-0.5-2.1-1.3-2.9-2.4c-0.6-0.8-1-2-1.3-3.6
		C683.6,205.4,683.4,203.3,683.4,200.6z M688.8,200.6c0,4.1,0.3,6.6,0.8,7.7s1.5,1.6,3,1.6c1.5,0,2.4-0.5,3-1.6
		c0.5-1,0.8-3.6,0.8-7.7s-0.3-6.7-0.8-7.8c-0.5-1.1-1.5-1.6-3-1.6c-1.5,0-2.5,0.5-3,1.6C689.1,193.9,688.8,196.5,688.8,200.6z
		 M662.8,204.3h5.3v1.6c0,1.5,0.2,2.6,0.7,3.1c0.4,0.6,1.2,0.8,2.3,0.8c1.1,0,2-0.3,2.5-0.7s0.9-1.2,0.9-2.2c0-0.7-0.2-1.4-0.6-1.9
		c-0.4-0.5-1.3-1.2-2.6-2.1l-2.7-1.7c-2.3-1.4-3.8-2.6-4.5-3.5c-0.6-0.9-1-2.1-1-3.5c0-2.1,0.7-3.7,2.1-4.9c1.4-1.2,3.4-1.8,5.8-1.8
		c2.6,0,4.6,0.6,6,1.9c1.4,1.3,2.1,3.1,2.1,5.4c0,0.2,0,0.4,0,0.5c0,0.1,0,0.2,0,0.3h-5v-0.7c0-1.3-0.3-2.3-0.8-2.9
		s-1.3-0.9-2.5-0.9c-0.8,0-1.5,0.2-2,0.6c-0.5,0.4-0.7,1-0.7,1.8c0,1,1.1,2.2,3.3,3.5c0,0,0,0,0.1,0l2.9,1.7
		c2.1,1.2,3.5,2.3,4.2,3.4c0.7,1.1,1.1,2.4,1.1,4.1c0,2.3-0.7,4-2.2,5.2c-1.5,1.2-3.6,1.8-6.3,1.8c-2.8,0-5-0.6-6.4-1.9
		c-1.4-1.3-2.1-3.3-2.1-5.9C662.7,205.5,662.8,205,662.8,204.3L662.8,204.3L662.8,204.3z M642.1,204.3h5.3v1.6
		c0,1.5,0.2,2.6,0.7,3.1c0.4,0.6,1.2,0.8,2.3,0.8c1.1,0,2-0.3,2.5-0.7c0.6-0.5,0.9-1.2,0.9-2.2c0-0.7-0.2-1.4-0.6-1.9
		c-0.4-0.5-1.3-1.2-2.6-2.1l-2.7-1.7c-2.3-1.4-3.8-2.6-4.5-3.5c-0.6-0.9-1-2.1-1-3.5c0-2.1,0.7-3.7,2.1-4.9c1.4-1.2,3.4-1.8,5.8-1.8
		c2.6,0,4.6,0.6,6,1.9c1.4,1.3,2.1,3.1,2.1,5.4c0,0.2,0,0.4,0,0.5c0,0.1,0,0.2,0,0.3h-5v-0.7c0-1.3-0.3-2.3-0.8-2.9
		s-1.3-0.9-2.5-0.9c-0.8,0-1.5,0.2-2,0.6c-0.5,0.4-0.7,1-0.7,1.8c0,1,1.1,2.2,3.3,3.5c0,0,0,0,0.1,0l2.9,1.7
		c2.1,1.2,3.5,2.3,4.2,3.4c0.7,1.1,1.1,2.4,1.1,4.1c0,2.3-0.7,4-2.2,5.2c-1.5,1.2-3.6,1.8-6.3,1.8c-2.8,0-5-0.6-6.4-1.9
		c-1.4-1.3-2.1-3.3-2.1-5.9C642.1,205.5,642.1,205,642.1,204.3L642.1,204.3L642.1,204.3z M624,213.1v-24.8h14.6v4.1h-9.3v5.7h8.7
		v3.9h-8.7v6.8h9.5v4.2L624,213.1L624,213.1z M614.6,204.2h5.1c0,0.1,0,0.3,0,0.5s0,0.4,0,0.5c0,2.9-0.7,5-2.1,6.4s-3.5,2.1-6.3,2.1
		c-1.3,0-2.5-0.1-3.5-0.5c-1-0.3-1.8-0.8-2.5-1.4c-1-0.9-1.6-2-2-3.5c-0.4-1.5-0.6-4.1-0.6-7.9c0-2.6,0.1-4.6,0.3-6.1
		s0.6-2.6,1.1-3.4c0.8-1.1,1.7-2,2.8-2.5s2.6-0.8,4.3-0.8c2.9,0,5,0.6,6.3,2c1.3,1.3,2,3.4,2,6.3h-5.1v-0.6c0-1.4-0.3-2.4-0.8-3
		c-0.5-0.7-1.3-1-2.3-1c-1.3,0-2.1,0.5-2.6,1.4c-0.5,0.9-0.7,3.4-0.7,7.6c0,4.5,0.2,7.2,0.7,8.1c0.5,1,1.3,1.4,2.6,1.4
		c1.2,0,2-0.4,2.5-1.1c0.5-0.8,0.7-2.1,0.7-4.2L614.6,204.2L614.6,204.2z M593.9,204.2h5.1c0,0.1,0,0.3,0,0.5s0,0.4,0,0.5
		c0,2.9-0.7,5-2.1,6.4s-3.5,2.1-6.3,2.1c-1.3,0-2.5-0.1-3.5-0.5c-1-0.3-1.8-0.8-2.5-1.4c-1-0.9-1.6-2-2-3.5
		c-0.4-1.5-0.6-4.1-0.6-7.9c0-2.6,0.1-4.6,0.3-6.1s0.6-2.6,1.1-3.4c0.8-1.1,1.7-2,2.8-2.5s2.6-0.8,4.3-0.8c2.9,0,5,0.6,6.3,2
		c1.3,1.3,2,3.4,2,6.3h-5.1v-0.6c0-1.4-0.3-2.4-0.8-3c-0.5-0.7-1.3-1-2.3-1c-1.3,0-2.1,0.5-2.6,1.4c-0.5,0.9-0.7,3.4-0.7,7.6
		c0,4.5,0.2,7.2,0.7,8.1c0.5,1,1.3,1.4,2.6,1.4c1.2,0,2-0.4,2.5-1.1c0.5-0.8,0.7-2.1,0.7-4.2L593.9,204.2L593.9,204.2z M560,213.1
		l6.4-24.8h7.1l6.4,24.8h-5.7l-1.4-6.2h-6.1l-1.4,6.2H560z M567.5,203.1h4.5l-2.3-10.4L567.5,203.1z"/>
	<path class="st2" d="M182.1,81.8c-0.3,8.8-0.5,17.5-0.7,26.3c9.4,0.1,20.3-2.9,24.4-26.3C197.8,81.8,189.9,81.8,182.1,81.8
		 M118.9,108c1.6,1.6,3.2,3.2,4.8,4.8c17.3-0.2,34.3-0.5,51.6-0.8l-0.5-25.1c-1.4-5.7-18.6-3.2-23.5-3.3c-10.7,7.3-21.3,14.7-32,22
		C119.2,106.4,119,107.2,118.9,108z M45.6,165c-3.4,0-6.8,0-10.2,0l-4.6-4.3c-5.6-5.2-18.3-3.9-8-21c-3.7-14.1-1.3-21.3,11.8-22.6
		c22.4-2.3,47.9-7.2,71.2-10.3c13.3-10.8,28.3-21.8,41.7-32.5c31-0.3,68.2,0.6,99.3,0.3c-27.6,15.3-71.8,40.3-62,88.9
		c-26.7,0-57.5,0-84.2,0c-10-20.5-16.5-26.1-29-25.9l-19.9,0.3C45.8,138.1,44.1,145.6,45.6,165z"/>
	<path class="st2" d="M72.1,156.4c4.7,0,8.5,3.8,8.5,8.5c0,4.7-3.8,8.5-8.5,8.5c-4.7,0-8.5-3.8-8.5-8.5
		C63.6,160.2,67.4,156.4,72.1,156.4 M72.1,143.2c11.9,0,21.6,9.7,21.6,21.6s-9.7,21.6-21.6,21.6c-11.9,0-21.6-9.7-21.6-21.6
		C50.5,152.9,60.2,143.2,72.1,143.2z"/>
	<path class="st2" d="M665.4,107.6h2.3c1.1,0,1.9-0.2,2.3-0.5s0.6-0.8,0.6-1.3c0-0.3-0.1-0.7-0.3-0.9s-0.5-0.5-0.8-0.6
		c-0.3-0.1-1-0.2-1.9-0.2h-2.2L665.4,107.6L665.4,107.6z M663.5,114.3v-12h4.1c1.4,0,2.4,0.1,3.1,0.3s1.1,0.6,1.5,1.2
		c0.4,0.6,0.6,1.1,0.6,1.8c0,0.9-0.3,1.6-0.9,2.3c-0.6,0.7-1.5,1-2.5,1.1c0.4,0.2,0.8,0.4,1,0.6c0.5,0.5,1.1,1.3,1.8,2.4l1.5,2.3
		h-2.4l-1.1-1.9c-0.8-1.5-1.5-2.4-2-2.8c-0.3-0.3-0.9-0.4-1.5-0.4h-1.1v5.1L663.5,114.3L663.5,114.3z M668.4,98.9
		c-1.6,0-3.1,0.4-4.6,1.2c-1.5,0.8-2.6,1.9-3.5,3.4c-0.8,1.5-1.3,3-1.3,4.7c0,1.6,0.4,3.1,1.2,4.6s2,2.6,3.5,3.4
		c1.5,0.8,3,1.2,4.6,1.2c1.6,0,3.1-0.4,4.6-1.2s2.6-2,3.4-3.4s1.2-3,1.2-4.6c0-1.6-0.4-3.2-1.2-4.7c-0.8-1.5-2-2.6-3.5-3.4
		C671.5,99.3,669.9,98.9,668.4,98.9z M668.4,97.1c1.9,0,3.7,0.5,5.5,1.4c1.8,1,3.2,2.3,4.2,4.1c1,1.8,1.5,3.7,1.5,5.6
		c0,1.9-0.5,3.8-1.5,5.5s-2.3,3.2-4.1,4.1c-1.8,1-3.6,1.5-5.5,1.5s-3.8-0.5-5.5-1.5c-1.8-1-3.1-2.3-4.1-4.1c-1-1.8-1.5-3.6-1.5-5.5
		c0-1.9,0.5-3.8,1.5-5.6c1-1.8,2.4-3.2,4.2-4.1C664.7,97.5,666.5,97.1,668.4,97.1z"/>
</g>
</svg>
